<svg xmlns="http://www.w3.org/2000/svg" viewBox="0 0 270.03 402.02"><title>icon-sunset</title><g id="Layer_2" data-name="Layer 2"><g id="Layer_1-2" data-name="Layer 1"><path d="M270,135C270,60.57,209.46,0,135,0S0,60.57,0,135a134.75,134.75,0,0,0,30.1,85H0V226H270V220h-30.1A134.75,134.75,0,0,0,270,135M38,220a129,129,0,1,1,194,0Z"/><rect x="29.33" y="249.32" width="211.36" height="6.04"/><rect x="58.66" y="278.65" width="152.7" height="6.04"/><rect x="29.33" y="307.98" width="211.36" height="6.04"/><rect x="58.66" y="337.31" width="152.7" height="6.04"/><rect x="29.33" y="366.64" width="211.36" height="6.04"/><rect x="87.99" y="395.97" width="94.04" height="6.04"/></g></g></svg>