<svg xmlns="http://www.w3.org/2000/svg" viewBox="0 0 270.03 402.02"><title>icon-growth</title><g id="Layer_2" data-name="Layer 2"><g id="Layer_1-2" data-name="Layer 1"><path d="M266.78,248.22l-.49-.85c-1.37-2.41-2.84-4.79-4.27-7.08-1.21-1.95-2.42-3.9-3.58-5.89-7-12-11.53-25.69-13.95-41.88-.61-4.11-1.11-8.35-1.59-12.45-1-8.85-2.1-18-4.45-26.81-6.88-25.85-24.49-50-48.31-66.21-2.81-1.92-5.75-3.68-8.74-5.36A46.92,46.92,0,0,0,196.7,47V0h-47a47.07,47.07,0,0,0-47,47V58.83a54.4,54.4,0,0,0-48.31-29.5H0V83.68A54.22,54.22,0,0,0,18,124,121.35,121.35,0,0,0,0,187.72a192.5,192.5,0,0,0,3.35,36.34c.43,2.14.9,4.3,1.41,6.41,5.3,21.85,14.83,40.71,28.32,56.08,2.64,3,5.42,6,8.11,8.89C50.89,305.88,60.93,316.67,66,330c4.82,12.71,4.59,26.7,3.85,37.47-.2,2.89-1.13,15.62-2.34,31.3L67.25,402H199.51l-.56-3.51a239.86,239.86,0,0,1-3.45-34.21c-.07-3.77,0-8,2.17-10.86,3.86-5.15,11.94-4.92,19.06-4.73,1.25,0,2.46.07,3.61.07a52.09,52.09,0,0,0,17.48-2.73c8.38-3,14.78-8.48,18-15.57,2.86-6.26,1.83-13,.93-19l-.14-.93c-.5-3.38-.67-8.24,1.44-12.21a11.2,11.2,0,0,0-.58-12c2.33-4.09,1.9-7.41,1-9.58-.26-.65-.54-1.28-.82-1.91-1-2.24-1.67-3.87-1.59-5.49,4.88-.95,12.86-2.58,13.86-11.07.46-3.83-1.56-7.31-3.18-10.11M108.7,83.68V47a41,41,0,0,1,41-41h41V47a41,41,0,0,1-41,41h-41Zm0,58.67A26.34,26.34,0,0,1,135,116h26.3v26.31A26.34,26.34,0,0,1,135,168.66H108.7ZM6,83.68V35.37H54.35a48.36,48.36,0,0,1,48.31,48.31V132H54.35A48.36,48.36,0,0,1,6,83.68M264,257.63c-.46,3.89-3.92,4.85-9.15,5.86-.67.13-1.3.25-1.89.38l-1.63.36-.56,1.57c-1.65,4.58.06,8.43,1.43,11.53.25.57.51,1.15.75,1.73.79,2-.43,4.2-1.6,5.74l-1.73,2.28,2.18,1.85a5.23,5.23,0,0,1,1,6.59c-2.88,5.42-2.72,11.66-2.08,15.93l.15.95c.81,5.38,1.65,10.94-.46,15.57-2.55,5.58-7.71,10-14.53,12.38a46.88,46.88,0,0,1-15.45,2.39c-1.1,0-2.26,0-3.46-.07-8.16-.22-18.33-.5-24.07,7.14-3.12,4.16-3.47,9.48-3.37,14.6a236,236,0,0,0,3,31.57H73.78c1.09-14.2,1.9-25.41,2.09-28.1.78-11.39,1-26.23-4.23-40-5.48-14.43-15.92-25.67-26-36.53-2.66-2.86-5.41-5.82-8-8.75-12.84-14.63-21.92-32.64-27-53.52-.49-2-1-4.1-1.36-6.16A187.2,187.2,0,0,1,6,187.7a115.27,115.27,0,0,1,16.69-59.86A54,54,0,0,0,54.35,138h48.31v24.72a25,25,0,0,0-19-8.76h-25v25a25,25,0,0,0,25,25h19v55.64h6v-85H135a32.39,32.39,0,0,0,32.36-32.35V110H135a32.34,32.34,0,0,0-26.31,13.6V94h41a46.77,46.77,0,0,0,26.6-8.28A115.8,115.8,0,0,1,186.74,92c22.64,15.42,39.36,38.3,45.87,62.78,2.24,8.39,3.28,17.32,4.29,26,.48,4.15,1,8.44,1.61,12.64,2.54,17,7.35,31.37,14.71,44,1.18,2,2.43,4,3.67,6,1.4,2.24,2.84,4.56,4.15,6.87l.51.9c1.23,2.13,2.63,4.53,2.41,6.38M102.66,179v19h-19a19,19,0,0,1-19-19V160h19a19,19,0,0,1,19,19"/></g></g></svg>