<svg xmlns="http://www.w3.org/2000/svg" viewBox="0 0 270.03 402.02"><title>icon-speech</title><g id="Layer_2" data-name="Layer 2"><g id="Layer_1-2" data-name="Layer 1"><path d="M270,135C270,60.57,209.46,0,135,0S0,60.57,0,135a134.18,134.18,0,0,0,17.29,66A134.14,134.14,0,0,0,0,267c0,74.45,60.57,135,135,135s135-60.57,135-135a134.15,134.15,0,0,0-17.3-66A135,135,0,0,0,270,135M6,135a129,129,0,1,1,243.09,60,134.87,134.87,0,0,0-228.24,0A128.16,128.16,0,0,1,6,135m239.71,66A128.74,128.74,0,0,1,221,231.12l-1,.9v30.09l-25.42-12.7-1.36.68A127.5,127.5,0,0,1,135,264,129,129,0,0,1,24.26,201a128.87,128.87,0,0,1,221.49,0M264,267A129,129,0,1,1,20.89,207,135,135,0,0,0,135,270a133.66,133.66,0,0,0,59.57-13.86L226,271.89V234.71A134.57,134.57,0,0,0,249.14,207,128.13,128.13,0,0,1,264,267"/></g></g></svg>