<svg xmlns="http://www.w3.org/2000/svg" viewBox="0 0 270.03 402.02"><title>icon-particles</title><g id="Layer_2" data-name="Layer 2"><g id="Layer_1-2" data-name="Layer 1"><path d="M32.35,64.71A32.36,32.36,0,1,0,0,32.35,32.4,32.4,0,0,0,32.35,64.71M32.35,6A26.31,26.31,0,1,1,6,32.35,26.34,26.34,0,0,1,32.35,6"/><path d="M193.68,152.7a32.36,32.36,0,1,0-32.36-32.35,32.38,32.38,0,0,0,32.36,32.35m0-58.66a26.31,26.31,0,1,1-26.31,26.31A26.34,26.34,0,0,1,193.68,94"/><path d="M64.71,267a32.36,32.36,0,1,0-32.36,32.36A32.39,32.39,0,0,0,64.71,267M6,267a26.31,26.31,0,1,1,26.31,26.31A26.35,26.35,0,0,1,6,267"/><path d="M240.7,281.67A32.36,32.36,0,1,0,208.34,314a32.39,32.39,0,0,0,32.36-32.35m-58.67,0A26.31,26.31,0,1,1,208.34,308,26.34,26.34,0,0,1,182,281.67"/><path d="M61.69,308A32.36,32.36,0,1,0,94,340.33,32.39,32.39,0,0,0,61.69,308m0,58.66A26.31,26.31,0,1,1,88,340.33a26.34,26.34,0,0,1-26.3,26.31"/><path d="M14.67,135A32.35,32.35,0,1,0,47,102.66,32.38,32.38,0,0,0,14.67,135m58.66,0A26.31,26.31,0,1,1,47,108.7,26.34,26.34,0,0,1,73.33,135"/><path d="M223,337.31a32.36,32.36,0,1,0,32.35,32.35A32.39,32.39,0,0,0,223,337.31M223,396a26.31,26.31,0,1,1,26.31-26.31A26.34,26.34,0,0,1,223,396"/><path d="M135,94a32.36,32.36,0,1,0-32.35-32.36A32.4,32.4,0,0,0,135,94m0-58.67A26.31,26.31,0,1,1,108.7,61.68,26.34,26.34,0,0,1,135,35.37"/><path d="M237.67,161.32A32.36,32.36,0,1,0,270,193.68a32.39,32.39,0,0,0-32.36-32.36m0,58.67A26.32,26.32,0,1,1,264,193.68,26.35,26.35,0,0,1,237.67,220"/><path d="M149.68,308A32.36,32.36,0,1,0,182,340.33,32.38,32.38,0,0,0,149.68,308m0,58.66A26.31,26.31,0,1,1,176,340.33a26.34,26.34,0,0,1-26.31,26.31"/><path d="M138,237.67A32.36,32.36,0,1,0,105.68,270,32.39,32.39,0,0,0,138,237.67M105.68,264A26.31,26.31,0,1,1,132,237.67,26.34,26.34,0,0,1,105.68,264"/><path d="M223,79.37A32.36,32.36,0,1,0,190.65,47,32.38,32.38,0,0,0,223,79.37m0-58.66A26.31,26.31,0,1,1,196.7,47,26.34,26.34,0,0,1,223,20.71"/><path d="M120.35,196.7A32.36,32.36,0,1,0,88,164.34a32.39,32.39,0,0,0,32.35,32.36m0-58.67A26.32,26.32,0,1,1,94,164.34,26.34,26.34,0,0,1,120.35,138"/></g></g></svg>