<svg xmlns="http://www.w3.org/2000/svg" viewBox="0 0 299.96 402.02"><title>icon-heads</title><g id="Layer_2" data-name="Layer 2"><g id="Layer_1-2" data-name="Layer 1"><path d="M296.4,202.49l-.55-1c-1.51-2.68-3.15-5.31-4.73-7.86-1.36-2.17-2.71-4.35-4-6.56-7.77-13.37-12.87-28.65-15.57-46.7-.68-4.57-1.23-9.29-1.76-13.85-1.15-9.83-2.34-20-4.94-29.77-7.63-28.68-27.17-55.45-53.59-73.45a135.18,135.18,0,0,0-137.7-8.42C38,33.28,13.21,66.43,3.85,108.28a160.76,160.76,0,0,0,3.18,82A106.65,106.65,0,0,0,2.59,205c-6.82,30.5,0,62.91,18.27,86.69,3.18,4.15,6.77,8,10.23,11.77,6,6.49,11.68,12.62,15.46,20.05,8.92,17.5,6.33,39.1,3.83,60-.64,5.32-1.24,10.35-1.65,15.28l-.26,3.16,3.17.11H227.08l-.79-3.66c-.48-2.28-1-4.58-1.42-6.87s-.87-4.39-1.27-6.58c-3.11-17-6.18-35.15-6.52-53.49-.08-4.25,0-9.05,2.47-12.29,4.41-5.86,13.48-5.61,21.49-5.39,1.39,0,2.73.08,4,.08a57.57,57.57,0,0,0,19.33-3c9.23-3.26,16.28-9.34,19.84-17.14,3.14-6.87,2-14.34,1-20.93l-.15-1c-.57-3.81-.75-9.29,1.64-13.79a12.12,12.12,0,0,0-.75-13.13c2.13-3.65,2.55-7.26,1.22-10.56-.29-.71-.6-1.41-.91-2.11-1.18-2.65-2-4.57-1.78-6.52l.1,0c5.31-1,14.21-2.75,15.3-12,.49-4.16-1.72-8-3.49-11M75.55,375.88c-.83,7-1.62,13.6-2.21,20.09H55.05c.37-3.8.84-7.71,1.33-11.79,2.49-20.77,5.31-44.3-4.44-63.44-4.17-8.18-10.39-14.91-16.41-21.41-3.38-3.65-6.87-7.42-9.88-11.35C8.47,265.6,2.05,235.06,8.49,206.28c.51-2.25,1.11-4.45,1.75-6.62A146.78,146.78,0,0,0,31,237.07c4.73,6.17,10.09,12,15.27,17.56,9.07,9.81,17.65,19.07,23.42,30.41,13.58,26.66,9.67,59.29,5.89,90.84M79.4,396c.58-6.24,1.35-12.65,2.15-19.37,3.71-30.94,7.91-66-6.5-94.3-6.16-12.09-15.42-22.1-24.38-31.78C45.59,245,40.33,239.34,35.76,233.4a142.16,142.16,0,0,1-22.32-42.85c7.77-19,21.2-34,38.92-43.12a85,85,0,0,1,86.66,5.3c16.63,11.33,28.91,28.13,33.7,46.1A136,136,0,0,1,175.87,218c.36,3.08.73,6.27,1.2,9.39,1.9,12.68,5.5,23.45,11,32.93.88,1.51,1.81,3,2.74,4.5,1,1.67,2.08,3.35,3.05,5.06l.39.68c.81,1.39,1.82,3.13,1.69,4.24-.26,2.19-2,2.87-6.17,3.67l-1.41.29-1.63.36-.56,1.57c-1.33,3.69,0,6.7,1.08,9.13.18.42.37.83.54,1.26.45,1.11-.34,2.51-1.08,3.48l-1.62,2.24,2,1.86a3.12,3.12,0,0,1,.57,4c-2.24,4.2-2.12,9-1.63,12.3l.11.69c.59,3.88,1.19,7.89-.28,11.11-1.77,3.88-5.53,7.08-10.32,8.77a34.56,34.56,0,0,1-11.2,1.72c-.8,0-1.66,0-2.54-.05-5.9-.16-14-.38-18.49,5.61-2.46,3.27-2.73,7.37-2.66,11.31.24,12.6,2.32,24.93,4.43,36.48.28,1.49.56,3,.86,4.47.07.33.14.65.2,1H79.4M293.89,212.82c-.54,4.55-4.67,5.7-10.45,6.81-.74.15-1.44.28-2.09.43l-1.63.36-.56,1.56c-1.79,5,0,9,1.58,12.58.28.64.57,1.28.83,1.93.95,2.33-.47,4.93-1.81,6.71L278,245.48l2.19,1.85a6.18,6.18,0,0,1,1.16,7.75c-3.16,5.95-3,12.81-2.28,17.51l.16,1.05c.91,6,1.86,12.28-.53,17.51-2.88,6.29-8.69,11.24-16.36,14a51.93,51.93,0,0,1-17.3,2.68c-1.22,0-2.52,0-3.85-.08-9-.25-20.21-.56-26.49,7.8-3.41,4.55-3.79,10.39-3.68,16,.35,18.8,3.46,37.21,6.61,54.47q.61,3.35,1.29,6.69c.22,1.09.45,2.19.67,3.28H152.36c-.15-.72-.31-1.45-.45-2.18-.3-1.45-.58-2.91-.85-4.37-2.06-11.29-4.1-23.34-4.33-35.5,0-2.66,0-5.66,1.45-7.56,2.63-3.49,8.4-3.33,13.49-3.2.94,0,1.84.06,2.7.06a39.77,39.77,0,0,0,13.22-2.07c6.42-2.26,11.32-6.51,13.81-12,2.22-4.85,1.44-10,.75-14.52l-.1-.69c-.36-2.39-.48-5.81,1-8.57a9,9,0,0,0-.21-9.28,8.67,8.67,0,0,0,.57-7.36c-.19-.48-.4-1-.62-1.44a11.78,11.78,0,0,1-1.08-3.11c3.67-.74,9.49-2.3,10.25-8.75.36-3.11-1.27-5.93-2.46-8l-.36-.63c-1-1.78-2.1-3.53-3.18-5.27-.9-1.44-1.79-2.88-2.64-4.35-5.12-8.8-8.47-18.87-10.25-30.78-.46-3-.82-6.17-1.18-9.2a141.72,141.72,0,0,0-3.31-20c-5.16-19.34-18.33-37.4-36.14-49.53a91.09,91.09,0,0,0-92.83-5.68,88.38,88.38,0,0,0-38.72,39.52,155,155,0,0,1-1.12-72c9-40.07,32.61-71.79,66.59-89.3a129.11,129.11,0,0,1,131.53,8.05c25.24,17.19,43.88,42.71,51.15,70,2.49,9.36,3.65,19.3,4.78,28.92.53,4.61,1.09,9.38,1.79,14,2.81,18.83,8.15,34.8,16.31,48.85,1.32,2.26,2.7,4.49,4.08,6.71,1.55,2.5,3.16,5.08,4.62,7.65l.57,1c1.4,2.41,3,5.14,2.72,7.3"/></g></g></svg>