<svg xmlns="http://www.w3.org/2000/svg" viewBox="0 0 270.03 402.02"><title>icon-orbit</title><g id="Layer_2" data-name="Layer 2"><g id="Layer_1-2" data-name="Layer 1"><path d="M135,66C60.57,66,0,126.56,0,201S60.57,336,135,336s135-60.56,135-135S209.46,66,135,66m0,264A129,129,0,1,1,264,201,129.12,129.12,0,0,1,135,330"/><path d="M237.67,64.71a32.36,32.36,0,1,0-32.35-32.36,32.4,32.4,0,0,0,32.35,32.36m0-58.67a26.31,26.31,0,1,1-26.31,26.31A26.34,26.34,0,0,1,237.67,6"/><path d="M32.35,337.31a32.36,32.36,0,1,0,32.36,32.35,32.38,32.38,0,0,0-32.36-32.35m0,58.66a26.31,26.31,0,1,1,26.31-26.31A26.34,26.34,0,0,1,32.35,396"/><path d="M100.79,224.87a32.36,32.36,0,1,0,32.35,32.36,32.39,32.39,0,0,0-32.35-32.36m0,58.67a26.31,26.31,0,1,1,26.31-26.31,26.34,26.34,0,0,1-26.31,26.31"/><path d="M169.23,112.44a32.35,32.35,0,1,0,32.36,32.35,32.38,32.38,0,0,0-32.36-32.35m0,58.66a26.31,26.31,0,1,1,26.31-26.31,26.34,26.34,0,0,1-26.31,26.31"/></g></g></svg>