<svg xmlns="http://www.w3.org/2000/svg" viewBox="0 0 270.03 402.02"><title>icon-waves</title><g id="Layer_2" data-name="Layer 2"><g id="Layer_1-2" data-name="Layer 1"><path d="M267,26.16c-9.59,0-14.26-5.56-19.68-12C241.74,7.52,235.42,0,223,0s-18.73,7.52-24.3,14.16c-5.42,6.44-10.09,12-19.68,12s-14.27-5.56-19.69-12C153.76,7.52,147.44,0,135,0S116.3,7.52,110.72,14.16c-5.42,6.44-10.09,12-19.69,12s-14.27-5.56-19.69-12C65.76,7.52,59.44,0,47,0S28.29,7.52,22.71,14.16c-5.41,6.44-10.09,12-19.69,12H0v6.05H3c12.41,0,18.74-7.53,24.32-14.16C32.76,11.61,37.43,6,47,6s14.27,5.57,19.69,12C72.3,24.68,78.63,32.21,91,32.21s18.73-7.53,24.31-14.16c5.42-6.44,10.1-12,19.69-12s14.27,5.57,19.69,12c5.58,6.63,11.9,14.16,24.31,14.16s18.72-7.53,24.3-14.16C208.75,11.61,213.42,6,223,6s14.27,5.57,19.68,12c5.59,6.63,11.91,14.16,24.31,14.16h3V26.16Z"/><path d="M247.32,102.15C241.74,95.52,235.42,88,223,88s-18.73,7.53-24.3,14.16c-5.42,6.44-10.09,12-19.68,12s-14.27-5.57-19.69-12C153.76,95.52,147.44,88,135,88s-18.73,7.53-24.31,14.16c-5.42,6.44-10.09,12-19.69,12s-14.27-5.57-19.69-12C65.76,95.52,59.44,88,47,88s-18.74,7.53-24.32,14.16c-5.41,6.44-10.09,12-19.69,12H0v6H3c12.41,0,18.74-7.52,24.32-14.16C32.76,99.6,37.43,94,47,94S61.3,99.6,66.72,106C72.3,112.68,78.62,120.2,91,120.2s18.73-7.52,24.31-14.16c5.42-6.44,10.1-12,19.69-12s14.27,5.56,19.69,12c5.58,6.64,11.9,14.16,24.31,14.16s18.72-7.52,24.3-14.16c5.42-6.44,10.09-12,19.68-12s14.27,5.56,19.68,12c5.58,6.64,11.91,14.16,24.31,14.16h3v-6h-3c-9.59,0-14.26-5.57-19.68-12"/><path d="M247.32,58.16C241.74,51.52,235.42,44,223,44s-18.73,7.52-24.3,14.16c-5.42,6.44-10.09,12-19.68,12s-14.27-5.56-19.69-12C153.76,51.52,147.44,44,135,44s-18.73,7.52-24.31,14.16c-5.42,6.44-10.09,12-19.69,12s-14.27-5.56-19.69-12C65.76,51.52,59.44,44,47,44S28.29,51.52,22.71,58.15c-5.41,6.45-10.09,12-19.69,12H0v6H3c12.41,0,18.74-7.52,24.32-14.16C32.76,55.6,37.43,50,47,50S61.3,55.6,66.72,62C72.3,68.68,78.62,76.2,91,76.2S109.76,68.68,115.34,62c5.42-6.44,10.1-12,19.69-12s14.27,5.56,19.69,12C160.3,68.68,166.62,76.2,179,76.2s18.72-7.52,24.3-14.16c5.42-6.44,10.09-12,19.68-12s14.27,5.56,19.68,12C248.27,68.68,254.6,76.2,267,76.2h3v-6h-3c-9.59,0-14.26-5.56-19.68-12"/><polygon points="179.03 392.63 135.03 340.3 91.03 392.63 47.03 340.3 0.71 395.38 5.33 399.27 47.03 349.69 91.03 402.02 135.03 349.69 179.03 402.02 223.01 349.69 264.69 399.27 269.32 395.38 223.01 340.3 179.03 392.63"/><polygon points="179.03 348.63 135.03 296.31 91.03 348.63 47.03 296.31 0.71 351.38 5.33 355.27 47.03 305.69 91.03 358.02 135.03 305.69 179.03 358.02 223.01 305.7 264.69 355.27 269.32 351.38 223.01 296.31 179.03 348.63"/><polygon points="179.03 304.63 135.03 252.31 91.03 304.63 47.03 252.31 0.71 307.38 5.33 311.27 47.03 261.7 91.03 314.02 135.03 261.7 179.03 314.02 223.01 261.7 264.69 311.27 269.32 307.38 223.01 252.31 179.03 304.63"/><polygon points="138.03 236 138.03 141.63 169.69 179.28 174.32 175.39 135.01 128.64 95.7 175.39 100.33 179.28 131.99 141.63 131.99 236 138.03 236"/></g></g></svg>