<?xml version="1.0" encoding="utf-8"?>
<!-- Generator: Adobe Illustrator 23.0.2, SVG Export Plug-In . SVG Version: 6.00 Build 0)  -->
<svg version="1.1" id="Layer_1" xmlns="http://www.w3.org/2000/svg" xmlns:xlink="http://www.w3.org/1999/xlink" x="0px" y="0px"
	 viewBox="0 0 128 128" style="enable-background:new 0 0 128 128;" xml:space="preserve">
<style type="text/css">
	.st0{fill:#FFFFFF;}
</style>
<g>
	<g>
		<path class="st0" d="M64,2c34.2,0,62,27.8,62,62c0,34.2-27.8,62-62,62C29.8,126,2,98.2,2,64C2,29.8,29.8,2,64,2 M64,0
			C28.7,0,0,28.7,0,64c0,35.3,28.7,64,64,64c35.3,0,64-28.7,64-64C128,28.7,99.3,0,64,0L64,0z"/>
	</g>
	<path class="st0" d="M64,55.6c-10.9,0-19.7,8.8-19.7,19.7c0,3.3,0.8,6.4,2.2,9.1c-1.4,2.7-2.2,5.8-2.2,9.1
		c0,10.9,8.8,19.7,19.7,19.7c10.9,0,19.7-8.8,19.7-19.7c0-3.3-0.8-6.4-2.2-9.1c1.5-2.8,2.2-5.9,2.2-9.1C83.7,64.5,74.9,55.6,64,55.6
		 M82.2,93.5c0,10.1-8.2,18.2-18.2,18.2c-10.1,0-18.2-8.2-18.2-18.2c0-2.7,0.6-5.3,1.7-7.6C50.9,91.4,57.1,95,64,95
		c2.9,0,5.6-0.6,8.2-1.8l3.3,1.6l2.1,1.1v-2.4v-4c1.1-1.1,2.1-2.3,2.9-3.6C81.6,88.3,82.2,90.8,82.2,93.5 M48.2,84.4
		c3.2-5.4,9-9.1,15.8-9.1c6.7,0,12.6,3.7,15.8,9.1c-1,1.7-2.2,3.2-3.6,4.5v4.6l-3.9-2c-2.5,1.3-5.3,2-8.2,2
		C57.3,93.5,51.4,89.9,48.2,84.4 M80.6,82.9c-3.5-5.4-9.6-9.1-16.6-9.1c-6.9,0-13.1,3.6-16.6,9.1c-1.1-2.3-1.7-4.9-1.7-7.6
		c0-10.1,8.2-18.2,18.2-18.2c10.1,0,18.2,8.2,18.2,18.2C82.2,78,81.6,80.6,80.6,82.9"/>
	<polygon class="st0" points="57.8,37.9 57.8,36.4 49.4,36.4 49.4,48.2 58,48.2 58,46.8 51.1,46.8 51.1,42.8 57.2,42.8 57.2,41.4 
		51.1,41.4 51.1,37.9 	"/>
	<path class="st0" d="M74.5,36.4l-4.3,11.8h1.7l1.2-3.4h4.6l1.2,3.4h1.8l-4.3-11.8H74.5z M73.5,43.5l1.2-3.3
		c0.4-1.1,0.7-2.5,0.7-2.5h0c0,0,0.3,1.4,0.7,2.5l1.1,3.3H73.5z"/>
	<path class="st0" d="M68.8,39.7c0-1.9-1.4-3.2-3.5-3.2h-5.5v11.8h1.6v-4.9h3.1c1.5,0,2.2,0.6,2.3,2.3c0.1,1.9,0.2,2.4,0.4,2.6H69
		v-0.1c-0.2-0.2-0.4-0.7-0.5-2.6c-0.1-1.7-0.5-2.5-1.8-2.9v0C68.2,42.2,68.8,41.1,68.8,39.7 M64.7,42h-3.4v-4.2h3.5
		c1.7,0,2.3,0.7,2.3,2.1C67.1,41.2,66.3,42,64.7,42"/>
	<polygon class="st0" points="27,37.9 30.8,37.9 30.8,48.2 32.5,48.2 32.5,37.9 36.3,37.9 36.3,36.4 27,36.4 	"/>
	<polygon class="st0" points="45.6,48.2 47.2,48.2 47.2,36.4 45.6,36.4 45.6,41.4 39.5,41.4 39.5,36.4 37.9,36.4 37.9,48.2 
		39.5,48.2 39.5,42.7 45.6,42.7 	"/>
	<path class="st0" d="M99.5,36.4L97.4,40c-0.5,0.8-1.2,2.2-1.2,2.2h0c0,0-0.7-1.4-1.2-2.2l-2.1-3.5h-1.8l4.2,6.8v4.9h1.6v-4.9
		l4.3-6.9H99.5z"/>
	<path class="st0" d="M87.1,36.4h-5v11.8h1.6v-4.8H87c2.6,0,3.8-1.3,3.8-3.5c0-0.9-0.3-1.7-0.8-2.3C89.3,36.9,88.4,36.4,87.1,36.4
		 M86.8,42.1h-3v-4.2h3.1c1.5,0,2.3,0.7,2.3,2.1C89.2,41.3,88.4,42.1,86.8,42.1"/>
	<path class="st0" d="M71.4,24.3c0-1-0.1-2.5-0.1-2.5h0c0,0,0.8,1.4,1.3,2.3l4.8,7.4h1.7V19.7h-1.5v7.2c0,1,0.1,2.5,0.1,2.5h0
		c0,0-0.7-1.5-1.3-2.3l-4.8-7.4h-1.7v11.8h1.5V24.3z"/>
	<path class="st0" d="M86.2,30.4c-2.1,0-3.3-1-3.5-2.8h-1.6c0.1,2.3,1.8,4.1,5.1,4.1c2.6,0,4.4-1.2,4.4-3.5c0-2.6-2.1-3.2-4.4-3.7
		c-1.8-0.4-3.1-0.7-3.1-2c0-1.2,1-1.8,2.6-1.8c1.7,0,2.7,0.8,2.9,2.2h1.6c-0.3-2-1.6-3.5-4.5-3.5c-2.4,0-4.1,1.2-4.1,3.2
		c0,2.3,1.8,2.9,3.9,3.3c2.1,0.5,3.4,0.8,3.4,2.4C88.9,29.7,87.8,30.4,86.2,30.4"/>
	<path class="st0" d="M62.1,31.7c3.6,0,5.8-2.6,5.8-6.1c0-3.5-2.2-6.1-5.8-6.1c-3.6,0-5.8,2.6-5.8,6.1
		C56.3,29.1,58.5,31.7,62.1,31.7 M62.1,20.8c2.7,0,4.1,2,4.1,4.8c0,2.7-1.4,4.7-4.1,4.7c-2.7,0-4.1-2-4.1-4.7
		C58,22.9,59.4,20.8,62.1,20.8"/>
	<polygon class="st0" points="47,30 40.9,30 40.9,19.7 39.3,19.7 39.3,31.5 47,31.5 	"/>
	<path class="st0" d="M50.2,31.5h1.6v-4.9l4.3-6.9h-1.7l-2.1,3.5c-0.5,0.8-1.2,2.2-1.2,2.2h0c0,0-0.7-1.4-1.2-2.2l-2.1-3.5H46
		l4.2,6.8V31.5z"/>
</g>
</svg>
