<svg xmlns="http://www.w3.org/2000/svg" viewBox="0 0 240.28 32"><defs><style>.cls-1{fill:#f28d65;}.cls-2{fill:#1d1d1b;}</style></defs><title>Logo Horizontal</title><g id="Layer_2" data-name="Layer 2"><g id="Logo"><circle id="Circle" class="cls-1" cx="16" cy="16" r="16"/><path class="cls-2" d="M41.85,8.36H44.3V24h9.24v2.23H41.85Z"/><path class="cls-2" d="M58.65,18.73,52.22,8.36H55l3.22,5.37c.17.33.37.68.57,1.06s.4.74.58,1.08l.6,1.2h0q.28-.6.6-1.2c.17-.34.37-.7.57-1.08l.6-1.06L65,8.36H67.6L61.1,18.85v7.36H58.65Z"/><path class="cls-2" d="M76.55,26.6a9,9,0,0,1-3.63-.71,8,8,0,0,1-2.76-1.95,8.58,8.58,0,0,1-1.74-3,11,11,0,0,1-.6-3.69,11.08,11.08,0,0,1,.6-3.72,8.31,8.31,0,0,1,1.74-2.94,8,8,0,0,1,2.76-2,9.66,9.66,0,0,1,7.27,0,8,8,0,0,1,2.76,2,8.49,8.49,0,0,1,1.75,2.94,10.83,10.83,0,0,1,.61,3.72A10.74,10.74,0,0,1,84.7,21a8.76,8.76,0,0,1-1.75,3,8,8,0,0,1-2.76,1.95A9,9,0,0,1,76.55,26.6Zm0-2.16a6.32,6.32,0,0,0,2.68-.54,5.46,5.46,0,0,0,2-1.5,6.39,6.39,0,0,0,1.19-2.27,9.56,9.56,0,0,0,.4-2.84,9.69,9.69,0,0,0-.4-2.86,6.35,6.35,0,0,0-1.19-2.28,5.6,5.6,0,0,0-2-1.51,6.17,6.17,0,0,0-2.68-.55,6.1,6.1,0,0,0-2.67.55,5.64,5.64,0,0,0-2,1.51,6.53,6.53,0,0,0-1.2,2.28,9.69,9.69,0,0,0-.41,2.86,9.55,9.55,0,0,0,.41,2.84,6.57,6.57,0,0,0,1.2,2.27,5.49,5.49,0,0,0,2,1.5A6.24,6.24,0,0,0,76.55,24.44Z"/><path class="cls-2" d="M88.34,8.36H90.9l7.32,11.18c.23.34.46.71.69,1.12s.44.8.63,1.16l.68,1.27h.07c0-.44-.07-.89-.1-1.34s0-.8-.06-1.25,0-.85,0-1.22V8.36h2.3V26.21H99.88L92.58,15c-.22-.34-.45-.7-.68-1.1l-.66-1.16c-.24-.41-.47-.83-.7-1.27h-.05c0,.45,0,.9.08,1.35s0,.79,0,1.22,0,.83,0,1.2V26.21h-2.3Z"/><path class="cls-2" d="M112.7,26.58a9.89,9.89,0,0,1-3.28-.49,6.73,6.73,0,0,1-2.35-1.3,5.57,5.57,0,0,1-1.45-2,6.71,6.71,0,0,1-.58-2.4h2.42A4.42,4.42,0,0,0,109,23.54a5.88,5.88,0,0,0,3.77,1.07,6.08,6.08,0,0,0,1.64-.21,3.63,3.63,0,0,0,1.3-.6,2.81,2.81,0,0,0,.85-1,3,3,0,0,0,.31-1.42A2.59,2.59,0,0,0,116.5,20a3,3,0,0,0-1.06-1,7.79,7.79,0,0,0-1.63-.65c-.63-.17-1.34-.35-2.12-.52a22.76,22.76,0,0,1-2.27-.58,7,7,0,0,1-1.88-.9,4.1,4.1,0,0,1-1.29-1.4,4.4,4.4,0,0,1-.47-2.14,4.45,4.45,0,0,1,.46-2,4.36,4.36,0,0,1,1.27-1.5,6,6,0,0,1,2-.93,10,10,0,0,1,5.36.07,6.05,6.05,0,0,1,2,1.09,4.91,4.91,0,0,1,1.28,1.66,7.1,7.1,0,0,1,.63,2.11h-2.38A3.61,3.61,0,0,0,115,10.79a4.94,4.94,0,0,0-3-.85,5,5,0,0,0-2.83.7,2.27,2.27,0,0,0-1.06,2,2.06,2.06,0,0,0,.35,1.21,2.71,2.71,0,0,0,1,.83,6.85,6.85,0,0,0,1.46.56c.57.16,1.19.3,1.86.45q1.31.25,2.49.6a7.38,7.38,0,0,1,2.11,1,4.4,4.4,0,0,1,1.46,1.57,4.92,4.92,0,0,1,.54,2.44,5,5,0,0,1-.49,2.26,4.71,4.71,0,0,1-1.38,1.66,6.19,6.19,0,0,1-2.11,1A9.78,9.78,0,0,1,112.7,26.58Z"/><path class="cls-2" d="M127.6,8.36h14.21v2.16h-5.88V26.21h-2.47V10.52H127.6Z"/><path class="cls-2" d="M144.42,8.36h2.45v7.51h9.22V8.36h2.47V26.21h-2.47V17.86h-9.22v8.35h-2.45Z"/><path class="cls-2" d="M162,8.36h12.69v2.16H164.46v5.4h9.27v2h-9.27v6H175v2.23H162Z"/><path class="cls-2" d="M177.61,8.36H186a6.56,6.56,0,0,1,2.18.35,4.81,4.81,0,0,1,1.69,1,4.31,4.31,0,0,1,1.09,1.56,5.09,5.09,0,0,1,.39,2,4.92,4.92,0,0,1-.75,2.77,4.35,4.35,0,0,1-2.52,1.69v.08a3.91,3.91,0,0,1,1.25.57,2.87,2.87,0,0,1,.82.88,4,4,0,0,1,.47,1.23,11.88,11.88,0,0,1,.22,1.68c.05.71.11,1.3.17,1.77s.13.85.2,1.15a3,3,0,0,0,.2.67.7.7,0,0,0,.25.32v.12H189a1,1,0,0,1-.24-.35,4.12,4.12,0,0,1-.16-.7c-.05-.3-.09-.69-.12-1.16s-.08-1.07-.12-1.79a3.86,3.86,0,0,0-1-2.67,3.77,3.77,0,0,0-2.6-.76h-4.75v7.43h-2.45Zm2.45,8.45h5.12A3.87,3.87,0,0,0,187.9,16a3.06,3.06,0,0,0,.9-2.32,3.19,3.19,0,0,0-.81-2.38,3.74,3.74,0,0,0-2.7-.79h-5.23Z"/><path class="cls-2" d="M199.57,8.36h2.74l6.58,17.85H206.2L204.42,21h-7l-1.82,5.2h-2.52Zm-1.51,10.73h5.71l-1.7-5c-.16-.43-.3-.87-.43-1.32s-.24-.85-.34-1.22-.21-.83-.31-1.25h-.07c-.11.42-.23.84-.34,1.27l-.36,1.23c-.13.45-.26.88-.41,1.29Z"/><path class="cls-2" d="M211.21,8.36h7.52a6.57,6.57,0,0,1,2.5.44A4.54,4.54,0,0,1,223,10.09a5.23,5.23,0,0,1,1.27,3.5,5.18,5.18,0,0,1-1.44,3.88,6,6,0,0,1-4.34,1.4h-4.8v7.34h-2.48Zm2.48,8.52h4.56A3.8,3.8,0,0,0,221,16a3.17,3.17,0,0,0,.87-2.37,3,3,0,0,0-.91-2.37,3.78,3.78,0,0,0-2.57-.8h-4.65Z"/><path class="cls-2" d="M231.33,18.73,224.89,8.36h2.74l3.22,5.37c.17.33.36.68.57,1.06s.4.74.58,1.08l.6,1.2h.05q.28-.6.6-1.2t.57-1.08l.6-1.06,3.24-5.37h2.62l-6.51,10.49v7.36h-2.44Z"/></g></g></svg>