<svg xmlns="http://www.w3.org/2000/svg" viewBox="0 0 283.46 283.46"><defs><style>.cls-1{fill:#f4e7db;}</style></defs><title>logo</title><g id="Layer_2" data-name="Layer 2"><g id="Layer_1-2" data-name="Layer 1"><path class="cls-1" d="M141.73,283.46A141.73,141.73,0,1,0,0,141.73,141.72,141.72,0,0,0,141.73,283.46"/><path d="M141.73,123.18A43.57,43.57,0,0,0,103.1,187a43.6,43.6,0,1,0,77.26,0,43.56,43.56,0,0,0-38.63-63.77m40.35,84a40.35,40.35,0,1,1-77-16.82,43.6,43.6,0,0,0,36.68,20.07,43.13,43.13,0,0,0,18.19-4l7.26,3.64,4.7,2.35V198.28a43.12,43.12,0,0,0,6.53-8,40.23,40.23,0,0,1,3.67,16.82M106.79,187a40.35,40.35,0,0,1,69.88,0,40.43,40.43,0,0,1-8,9.9v10.28l-8.69-4.35A40.32,40.32,0,0,1,106.79,187m71.62-3.35a43.55,43.55,0,0,0-73.36,0,40.35,40.35,0,1,1,73.36,0"/><polygon points="128.05 83.87 128.05 80.72 109.49 80.72 109.49 106.82 128.43 106.82 128.43 103.56 113.06 103.56 113.06 94.75 126.61 94.75 126.61 91.77 113.06 91.77 113.06 83.87 128.05 83.87"/><path d="M165,80.72l-9.54,26.1h3.68l2.67-7.61h10.28l2.6,7.61h3.93L169,80.72ZM162.77,96.4l2.57-7.3c.84-2.42,1.61-5.54,1.61-5.54h.1s.71,3,1.58,5.54l2.49,7.3Z"/><path d="M152.32,87.91c0-4.32-3.16-7.19-7.82-7.19H132.28v26.1h3.58V95.94h6.95c3.41,0,4.95,1.34,5.19,5,.29,4.18.36,5.37.95,5.86h3.82v-.17c-.52-.35-.87-1.62-1.19-5.72-.24-3.76-1.09-5.51-4-6.39v-.1c3.47-1.09,4.77-3.34,4.77-6.53m-9,5.16h-7.48V83.8h7.65c3.69,0,5.13,1.58,5.13,4.64,0,2.84-1.76,4.63-5.3,4.63"/><polygon points="59.69 83.87 68.25 83.87 68.25 106.82 71.86 106.82 71.86 83.87 80.46 83.87 80.46 80.72 59.69 80.72 59.69 83.87"/><polygon points="100.89 106.82 104.5 106.82 104.5 80.72 100.89 80.72 100.89 91.7 87.41 91.7 87.41 80.72 83.84 80.72 83.84 106.82 87.41 106.82 87.41 94.61 100.89 94.61 100.89 106.82"/><path d="M220.35,80.72l-4.74,7.86c-1.09,1.86-2.6,4.88-2.6,4.88h-.07s-1.47-3-2.56-4.88l-4.7-7.86h-4l9.41,15.16v10.94h3.57V96.05l9.51-15.33Z"/><path d="M192.91,80.72h-11v26.1h3.61V96.08h7c5.65,0,8.45-2.9,8.45-7.71a7.47,7.47,0,0,0-8.1-7.65m-.7,12.46h-6.67V83.84h6.81c3.23,0,5.09,1.58,5.09,4.63s-1.69,4.71-5.23,4.71"/><path d="M158.23,53.71c0-2.11-.22-5.51-.22-5.51h.07s1.72,3.19,3,5.15l10.67,16.36h3.71V43.6h-3.36v16c0,2.18.24,5.58.24,5.58h-.1s-1.65-3.26-2.91-5.19L158.61,43.6h-3.75V69.71h3.37Z"/><path d="M190.9,67.36c-4.74,0-7.34-2.18-7.76-6.11H179.6c.28,5,3.89,9,11.19,9,5.65,0,9.72-2.76,9.72-7.71,0-5.83-4.59-7.13-9.65-8.15-3.93-.8-6.77-1.61-6.77-4.45,0-2.6,2.24-4,5.68-4,3.69,0,6,1.71,6.43,4.87h3.47c-.63-4.45-3.51-7.68-9.93-7.68-5.37,0-9.05,2.59-9.05,7,0,5,4,6.35,8.63,7.34s7.58,1.82,7.58,5.23c0,3.16-2.53,4.7-6,4.7"/><path d="M137.49,70.27c7.86,0,12.81-5.82,12.81-13.61S145.35,43,137.49,43s-12.77,5.79-12.77,13.62,4.87,13.61,12.77,13.61m0-24.14c5.93,0,9.09,4.52,9.09,10.53s-3.16,10.46-9.09,10.46-9.13-4.5-9.13-10.46,3.2-10.53,9.13-10.53"/><polygon points="104.09 66.45 90.58 66.45 90.58 43.6 87 43.6 87 69.71 104.09 69.71 104.09 66.45"/><path d="M111.22,69.71h3.58V58.94l9.51-15.34h-3.83l-4.74,7.86c-1.08,1.86-2.59,4.88-2.59,4.88h-.07s-1.47-3-2.56-4.88l-4.7-7.86h-4l9.4,15.16Z"/></g></g></svg>