<svg xmlns="http://www.w3.org/2000/svg" viewBox="0 0 180.17 24"><defs><style>.cls-1{fill:#f28d65;}</style></defs><title>lyons_therapy_logo_horizontal_final</title><g id="Layer_2" data-name="Layer 2"><g id="Layer_1_copy" data-name="Layer 1 copy"><circle id="Circle" class="cls-1" cx="12" cy="12" r="12"/><polygon points="130.74 6.92 130.74 5.3 121.19 5.3 121.19 18.73 130.93 18.73 130.93 17.05 123.03 17.05 123.03 12.52 130 12.52 130 10.99 123.03 10.99 123.03 6.92 130.74 6.92"/><path d="M149.73,5.3l-4.91,13.42h1.9l1.37-3.91h5.28l1.34,3.91h2L151.79,5.3Zm-1.14,8.07,1.32-3.76c.43-1.24.83-2.85.83-2.85h.06s.36,1.55.81,2.85l1.28,3.76Z"/><path d="M143.22,9c0-2.22-1.62-3.7-4-3.7h-6.28V18.72h1.83V13.13h3.58c1.75,0,2.54.69,2.67,2.58.14,2.15.18,2.76.49,3h2v-.09c-.27-.18-.45-.83-.61-2.94-.13-1.93-.56-2.83-2.08-3.28v-.05A3.16,3.16,0,0,0,143.22,9m-4.62,2.65h-3.85V6.89h3.94c1.89,0,2.63.81,2.63,2.38s-.9,2.38-2.72,2.38"/><polygon points="95.59 6.92 99.99 6.92 99.99 18.73 101.85 18.73 101.85 6.92 106.27 6.92 106.27 5.3 95.59 5.3 95.59 6.92"/><polygon points="116.77 18.73 118.63 18.73 118.63 5.3 116.77 5.3 116.77 10.95 109.84 10.95 109.84 5.3 108 5.3 108 18.73 109.84 18.73 109.84 12.45 116.77 12.45 116.77 18.73"/><path d="M178.2,5.3l-2.44,4c-.55,1-1.33,2.51-1.33,2.51h0s-.75-1.55-1.31-2.51l-2.42-4H168.6l4.84,7.8v5.62h1.84V13.19l4.89-7.89Z"/><path d="M164.09,5.3h-5.65V18.72h1.86V13.2h3.61c2.91,0,4.35-1.49,4.35-4a3.93,3.93,0,0,0-1-2.63,4,4,0,0,0-3.21-1.3m-.36,6.41H160.3V6.91h3.5c1.66,0,2.62.81,2.62,2.38s-.87,2.42-2.69,2.42"/><path d="M68.63,10.52c0-1.09-.11-2.84-.11-2.84h0s.89,1.64,1.54,2.65l5.48,8.41h1.91V5.32H75.75v8.21c0,1.12.13,2.87.13,2.87h0s-.85-1.68-1.5-2.67L68.82,5.32H66.9V18.74h1.73Z"/><path d="M85.43,17.54c-2.44,0-3.78-1.12-4-3.14H79.62c.14,2.56,2,4.61,5.75,4.61,2.91,0,5-1.42,5-4,0-3-2.36-3.66-5-4.18-2-.42-3.49-.83-3.49-2.29s1.16-2.06,2.93-2.06,3.07.88,3.3,2.51h1.79c-.33-2.3-1.81-3.95-5.11-3.95-2.76,0-4.66,1.33-4.66,3.59,0,2.58,2,3.26,4.44,3.77s3.9.94,3.9,2.69-1.3,2.42-3.08,2.42"/><path d="M58,19c4,0,6.59-3,6.59-7S62,5,58,5s-6.57,3-6.57,7S53.9,19,58,19M58,6.62c3,0,4.68,2.32,4.68,5.41S61,17.41,58,17.41,53.27,15.1,53.27,12,54.91,6.62,58,6.62"/><polygon points="40.78 17.07 33.84 17.07 33.84 5.32 32 5.32 32 18.74 40.78 18.74 40.78 17.07"/><path d="M44.45,18.74h1.84V13.2l4.89-7.88h-2l-2.44,4c-.56,1-1.33,2.51-1.33,2.51h0s-.76-1.55-1.32-2.51l-2.41-4H39.62l4.83,7.79Z"/></g></g></svg>