<svg xmlns="http://www.w3.org/2000/svg" viewBox="0 0 512 512"><defs><style>.cls-1{fill:#f28d65;}</style></defs><title>lyons_therapy_logo_orange</title><g id="Layer_2" data-name="Layer 2"><g id="Layer_1-2" data-name="Layer 1"><path class="cls-1" d="M256,512c141.38,0,256-114.61,256-256S397.38,0,256,0,0,114.61,0,256,114.62,512,256,512"/><path d="M256,222.5a78.69,78.69,0,0,0-69.78,115.2,78.75,78.75,0,1,0,139.56,0A78.68,78.68,0,0,0,256,222.5m72.89,151.64a72.89,72.89,0,1,1-139.14-30.38A78.74,78.74,0,0,0,256,380a77.82,77.82,0,0,0,32.85-7.18L302,379.39l8.49,4.25V358.13a78.45,78.45,0,0,0,11.79-14.37,72.59,72.59,0,0,1,6.64,30.38m-136-36.44a72.86,72.86,0,0,1,126.22,0,73.26,73.26,0,0,1-14.52,17.87v18.57l-15.7-7.85a72.86,72.86,0,0,1-96-28.59m129.37-6.05a78.66,78.66,0,0,0-132.51,0,72.88,72.88,0,1,1,132.51,0"/><polygon points="231.28 151.49 231.28 145.8 197.76 145.8 197.76 192.94 231.98 192.94 231.98 187.06 204.22 187.06 204.22 171.14 228.68 171.14 228.68 165.76 204.22 165.76 204.22 151.49 231.28 151.49"/><path d="M298,145.8l-17.24,47.14h6.66l4.81-13.75H310.8l4.69,13.75h7.1L305.22,145.8Zm-4,28.33,4.62-13.19c1.52-4.38,2.92-10,2.92-10h.19s1.27,5.45,2.85,10l4.5,13.19Z"/><path d="M275.12,158.79c0-7.8-5.7-13-14.13-13H238.94V193h6.45V173.3H258c6.15,0,8.94,2.41,9.38,9.06.51,7.54.64,9.7,1.71,10.59h6.9v-.32c-.95-.63-1.58-2.92-2.15-10.33-.44-6.78-2-10-7.28-11.53v-.19c6.27-2,8.61-6,8.61-11.79m-16.22,9.32H245.39V151.37h13.82c6.66,0,9.26,2.85,9.26,8.37,0,5.13-3.17,8.37-9.57,8.37"/><polygon points="107.82 151.49 123.28 151.49 123.28 192.94 129.81 192.94 129.81 151.49 145.33 151.49 145.33 145.8 107.82 145.8 107.82 151.49"/><polygon points="182.23 192.94 188.75 192.94 188.75 145.8 182.23 145.8 182.23 165.63 157.88 165.63 157.88 145.8 151.43 145.8 151.43 192.94 157.88 192.94 157.88 170.89 182.23 170.89 182.23 192.94"/><path d="M398,145.8,389.44,160c-2,3.36-4.69,8.81-4.69,8.81h-.13S382,163.35,380,160l-8.49-14.19h-7.23l17,27.37V193h6.46V173.49L404.9,145.8Z"/><path d="M348.44,145.8H328.6V193h6.52v-19.4H347.8c10.21,0,15.27-5.25,15.27-13.94a13.92,13.92,0,0,0-3.35-9.26c-2.41-2.91-6.27-4.55-11.28-4.55m-1.27,22.5H335.12V151.43h12.3c5.84,0,9.2,2.85,9.2,8.37,0,5.27-3.05,8.5-9.45,8.5"/><path d="M285.79,97c0-3.81-.38-10-.38-10h.13s3.1,5.77,5.38,9.32l19.28,29.54h6.71V78.76h-6.08v28.83c0,3.94.44,10.09.44,10.09h-.19s-3-5.9-5.26-9.38L286.49,78.76h-6.77v47.15h6.07Z"/><path d="M344.8,121.67c-8.56,0-13.25-3.93-14-11h-6.4c.51,9,7,16.22,20.22,16.22,10.21,0,17.56-5,17.56-13.94,0-10.52-8.3-12.87-17.43-14.71-7.1-1.45-12.24-2.91-12.24-8,0-4.69,4.06-7.23,10.27-7.23,6.66,0,10.78,3.11,11.6,8.81h6.28c-1.15-8-6.34-13.87-17.94-13.87-9.7,0-16.35,4.68-16.35,12.61,0,9.06,7.16,11.47,15.59,13.25,8.24,1.83,13.69,3.29,13.69,9.44,0,5.71-4.56,8.5-10.84,8.5"/><path d="M248.34,126.92c14.2,0,23.13-10.51,23.13-24.59s-8.93-24.58-23.13-24.58-23.07,10.44-23.07,24.58,8.8,24.59,23.07,24.59m0-43.61c10.71,0,16.42,8.18,16.42,19s-5.71,18.9-16.42,18.9-16.49-8.12-16.49-18.9,5.77-19,16.49-19"/><polygon points="188.01 120.02 163.6 120.02 163.6 78.76 157.15 78.76 157.15 125.91 188.01 125.91 188.01 120.02"/><path d="M200.89,125.91h6.46V106.45l17.18-27.69h-6.91L209.06,93c-2,3.36-4.68,8.81-4.68,8.81h-.13s-2.66-5.45-4.62-8.81l-8.5-14.19h-7.22l17,27.38Z"/></g></g></svg>